<svg id="svg2" viewBox="0 0 500 1200" xmlns="http://www.w3.org/2000/svg">
  <g id="Layer_1" transform="matrix(1, 0, 0, 1, -567.044, -975.076)" style="transform-origin: 819.997px 1225.23px;">
    <g transform="matrix(1, 0, 0, 1, 215.942, 948.131)">
      <g>
        <g>
          <g>
            <path d="M 479.989 600.913 C 479.258 604.862 478.618 614.104 477.939 623.888 C 476.956 638.103 475.937 652.802 474.36 657.182 C 473.566 659.391 472.918 661.85 472.289 664.229 C 470.807 669.833 469.273 675.628 465.648 679.254 C 462.153 682.748 461.113 683.095 459.431 683.446 C 458.835 683.569 458.162 683.711 457.163 684.126 C 455.707 684.732 454.82 686.341 453.962 687.896 C 452.915 689.796 451.829 691.761 449.639 692.127 C 447.822 692.431 445.839 694.181 443.542 696.208 C 441.734 697.804 439.685 699.612 437.247 701.153 C 435.532 702.237 434.192 702.188 433.391 701.161 C 431.941 699.306 432.802 694.25 433.781 690.335 C 434.099 689.06 433.892 686.764 433.16 685.825 C 432.896 685.489 432.66 685.45 432.505 685.45 C 432.229 685.45 431.615 685.601 430.6 686.617 C 429.386 687.831 428.256 688.421 427.146 688.421 C 425.006 688.421 423.747 686.195 422.913 684.722 C 422.727 684.393 422.557 684.092 422.398 683.855 C 421.601 682.66 422.954 678.06 427.711 663.902 C 429.618 658.229 431.587 652.364 432.606 648.531 C 434.437 641.637 433.868 638.688 433.066 637.429 C 432.674 636.809 432.135 636.445 431.419 636.314 C 430.528 636.345 427.631 640.373 425.714 643.038 C 423.15 646.604 420.495 650.293 418.4 651.615 C 417.375 652.262 416.248 652.603 415.136 652.603 C 413.269 652.604 411.575 651.64 410.821 650.15 C 410.175 648.878 410.324 647.442 411.226 646.209 C 413.308 643.365 424.38 627.217 428.236 619.039 C 431.015 613.144 438.12 607.988 443.309 604.225 C 445.462 602.662 447.324 601.311 448.416 600.25 C 452.111 596.666 453.215 585.424 453.786 545.571 C 454.355 505.883 466.194 459.092 472.375 439.894 C 477.641 423.542 477.119 401.015 476.808 387.555 L 476.758 385.344 C 476.675 381.555 476.661 378.454 476.646 374.865 C 476.609 365.692 476.561 354.277 475.287 323.498 C 473.599 282.685 498.751 267.533 512.264 259.393 C 513.053 258.918 513.806 258.464 514.516 258.03 C 526.743 250.525 577.385 228.153 582.764 225.782 C 582.667 222.971 582.251 209.654 582.789 206.399 C 583.275 203.461 579.187 194.56 576.48 188.67 L 575.486 186.499 C 573.1 181.246 573.502 176.416 573.803 174.502 L 570.218 174.264 C 569.513 174.216 568.817 173.776 568.089 172.914 C 563.725 167.754 558.05 146.027 558.344 143.111 C 558.492 141.605 559.607 140.742 561.401 140.742 C 562.492 140.742 563.609 141.047 564.132 141.213 C 564.042 139.876 563.891 137.984 563.644 135.299 C 562.192 119.625 568.88 98.779 574.057 90.362 C 578.86 82.555 606.571 73.912 607.747 73.548 L 607.966 73.515 L 616.435 73.548 C 617.613 73.912 645.324 82.556 650.126 90.361 C 655.304 98.78 661.989 119.626 660.54 135.299 C 660.29 137.984 660.139 139.877 660.049 141.213 C 660.572 141.048 661.69 140.742 662.782 140.742 C 664.573 140.742 665.688 141.605 665.84 143.111 C 666.131 146.029 660.454 167.757 656.09 172.916 C 655.362 173.775 654.666 174.216 653.961 174.264 L 650.378 174.502 C 650.683 176.416 651.083 181.246 648.696 186.499 L 647.697 188.68 C 644.992 194.567 640.906 203.462 641.392 206.399 C 641.93 209.654 641.514 222.971 641.418 225.782 C 646.796 228.153 697.439 250.525 709.668 258.03 C 710.375 258.465 711.129 258.919 711.92 259.393 C 725.43 267.534 750.582 282.686 748.895 323.498 C 747.622 354.269 747.574 365.685 747.535 374.857 C 747.519 378.45 747.507 381.553 747.423 385.344 L 747.372 387.566 C 747.061 401.023 746.543 423.547 751.806 439.894 C 757.986 459.091 769.826 505.882 770.395 545.571 C 770.968 585.424 772.073 596.666 775.767 600.25 C 776.86 601.311 778.719 602.66 780.872 604.223 C 786.061 607.989 793.169 613.145 795.948 619.039 C 799.808 627.232 810.875 643.37 812.956 646.211 C 813.858 647.442 814.007 648.878 813.36 650.15 C 812.605 651.64 810.912 652.603 809.046 652.603 C 807.937 652.604 806.809 652.262 805.783 651.615 C 803.685 650.293 801.033 646.604 798.466 643.038 C 796.55 640.373 793.653 636.346 792.744 636.316 C 792.045 636.445 791.507 636.809 791.112 637.429 C 790.313 638.688 789.746 641.637 791.574 648.531 C 792.593 652.364 794.563 658.229 796.469 663.902 C 801.226 678.06 802.579 682.66 801.784 683.855 C 801.624 684.093 801.456 684.393 801.269 684.723 C 800.434 686.196 799.173 688.421 797.034 688.421 C 795.924 688.423 794.794 687.831 793.578 686.617 C 792.564 685.601 791.949 685.45 791.673 685.45 C 791.52 685.45 791.283 685.489 791.021 685.825 C 790.288 686.763 790.083 689.059 790.401 690.335 C 791.376 694.253 792.234 699.312 790.789 701.161 C 789.985 702.19 788.647 702.236 786.935 701.153 C 784.496 699.612 782.448 697.803 780.639 696.208 C 778.343 694.181 776.36 692.431 774.543 692.127 C 772.352 691.761 771.268 689.796 770.219 687.895 C 769.36 686.34 768.473 684.733 767.017 684.126 C 766.018 683.711 765.345 683.569 764.752 683.446 C 763.067 683.094 762.027 682.748 758.531 679.254 C 754.907 675.628 753.377 669.833 751.894 664.23 C 751.265 661.851 750.615 659.392 749.82 657.182 C 748.243 652.802 747.224 638.103 746.241 623.886 C 745.564 614.104 744.924 604.863 744.191 600.913 C 743.087 594.949 741.048 589.96 737.671 581.697 C 735.727 576.936 733.306 571.01 730.384 563.218 C 722.264 541.558 712.582 493.356 710.02 471.43 L 709.613 467.938 C 707.472 449.562 703.02 411.326 700.047 409.747 C 697.257 409.764 691.157 422.722 690.286 440.449 C 689.368 459.133 691.862 491.372 697.625 512.984 L 698.265 515.374 C 704.057 537.082 710.047 559.529 710.901 579.313 C 711.063 583.033 711.539 588.095 712.09 593.957 C 714.676 621.464 719.006 667.504 706.459 714.564 C 690.781 773.377 689.673 788.507 688.814 814.552 C 688.069 837.141 690.524 849.919 693.367 864.714 C 693.895 867.471 694.442 870.312 694.988 873.312 C 698.552 892.926 694.574 942.672 689.084 962.898 C 683.413 983.794 674.086 1035.238 673.203 1048.183 C 673.113 1049.504 673.023 1050.746 672.938 1051.919 C 672.185 1062.317 671.84 1067.065 675.194 1074.029 C 676.839 1077.448 682.261 1083.479 687.504 1089.312 C 694.751 1097.374 701.595 1104.987 701.773 1108.731 C 702.069 1114.993 701.517 1116.905 699.318 1120.679 C 698.551 1121.992 697.989 1123.188 697.492 1124.245 C 696.636 1126.068 695.957 1127.512 694.734 1128.531 C 693.801 1129.308 692.67 1129.518 691.577 1129.722 C 690.368 1129.946 689.323 1130.14 688.68 1131.042 L 688.397 1131.441 C 687.525 1132.677 687.422 1132.756 685.628 1133.537 C 684.982 1133.819 684.087 1134.21 682.797 1134.817 C 681.856 1135.259 680.813 1135.484 679.695 1135.484 C 677.904 1135.484 676.163 1134.913 674.765 1134.454 C 673.817 1134.143 672.924 1133.849 672.343 1133.849 C 671.951 1133.849 671.813 1133.956 671.708 1134.343 C 671.032 1136.802 667.104 1140.449 663.052 1140.449 L 663.052 1140.449 C 660.814 1140.449 658.867 1139.331 657.424 1137.214 L 656.88 1136.419 C 652.447 1129.924 645.749 1120.109 642.608 1110.597 C 641.371 1106.855 640.849 1104.681 640.504 1103.241 C 639.948 1100.916 639.815 1100.363 637.71 1097.524 C 635.18 1094.112 637.206 1085.793 638.993 1078.453 C 639.873 1074.838 640.705 1071.422 640.804 1069.281 C 640.855 1068.2 640.96 1066.951 641.084 1065.505 L 641.244 1063.609 C 641.375 1061.997 640.445 1059.933 639.367 1057.544 C 637.893 1054.276 636.06 1050.209 635.979 1045.243 C 635.928 1042.16 636.758 1038.856 637.72 1035.031 C 639.1 1029.541 640.663 1023.317 639.923 1016.098 C 639.216 1009.194 638.326 1001.228 637.387 992.794 C 633.631 959.09 628.957 917.143 631.089 901.038 C 633.647 881.719 633.78 859.288 631.398 848.862 C 628.931 838.073 624.306 781.555 623.723 748.847 C 623.081 713.073 616.641 665.667 612.089 662.586 C 607.536 665.667 601.096 713.072 600.456 748.847 C 599.871 781.567 595.244 838.081 592.78 848.862 C 590.397 859.29 590.53 881.72 593.089 901.037 C 595.25 917.373 590.592 958.94 586.852 992.341 C 585.888 1000.938 584.977 1009.059 584.256 1016.098 C 583.595 1022.524 585.954 1027.996 588.034 1032.823 C 589.576 1036.401 591.032 1039.779 590.96 1042.965 C 590.745 1052.198 587.701 1058.616 585.477 1063.303 C 584.267 1065.856 583.31 1067.871 583.374 1069.282 C 583.473 1071.425 584.305 1074.842 585.185 1078.46 C 586.972 1085.798 588.998 1094.114 586.468 1097.525 C 584.364 1100.364 584.233 1100.917 583.674 1103.241 C 583.33 1104.68 582.809 1106.856 581.571 1110.599 C 578.428 1120.111 571.729 1129.926 567.296 1136.422 L 566.756 1137.215 C 565.313 1139.332 563.365 1140.45 561.127 1140.45 C 557.073 1140.451 553.145 1136.803 552.475 1134.342 C 552.367 1133.955 552.232 1133.848 551.837 1133.848 C 551.257 1133.848 550.363 1134.143 549.417 1134.453 C 548.018 1134.912 546.276 1135.483 544.485 1135.483 C 543.37 1135.483 542.328 1135.258 541.385 1134.816 C 540.095 1134.209 539.197 1133.818 538.551 1133.537 C 536.758 1132.756 536.655 1132.677 535.785 1131.44 L 535.5 1131.041 C 534.856 1130.139 533.812 1129.944 532.605 1129.719 C 531.509 1129.517 530.38 1129.307 529.445 1128.53 C 528.222 1127.509 527.547 1126.067 526.687 1124.243 C 526.19 1123.186 525.627 1121.989 524.863 1120.679 C 522.665 1116.904 522.111 1114.991 522.406 1108.73 C 522.584 1104.986 529.427 1097.371 536.674 1089.311 C 541.917 1083.478 547.34 1077.447 548.987 1074.028 C 552.338 1067.064 551.994 1062.318 551.24 1051.921 C 551.155 1050.747 551.065 1049.504 550.975 1048.182 C 550.094 1035.24 540.767 983.797 535.095 962.897 C 529.607 942.674 525.627 892.928 529.191 873.311 C 529.736 870.309 530.283 867.468 530.813 864.711 C 533.654 849.915 536.109 837.138 535.367 814.551 C 534.506 788.5 533.398 773.369 517.72 714.563 C 505.171 667.499 509.502 621.458 512.091 593.95 C 512.641 588.091 513.118 583.031 513.279 579.312 C 514.135 559.525 520.127 537.073 525.92 515.362 L 526.556 512.983 C 532.32 491.366 534.814 459.128 533.897 440.448 C 533.025 422.72 526.923 409.762 524.082 409.762 C 521.162 411.325 516.707 449.563 514.568 467.938 L 514.16 471.429 C 511.597 493.355 501.918 541.559 493.795 563.217 C 490.876 571.009 488.453 576.934 486.509 581.694 C 483.132 589.959 481.096 594.948 479.989 600.913 M 449.44 601.306 C 443.739 605.032 446.372 603.818 444.173 605.413 C 439.111 609.084 432.185 614.111 429.568 619.663 C 425.668 627.936 414.511 644.212 412.413 647.077 C 411.844 647.855 411.743 648.708 412.133 649.477 C 412.639 650.475 413.818 651.122 415.133 651.122 C 415.963 651.122 416.821 650.859 417.608 650.362 C 419.462 649.192 422.147 645.462 424.514 642.171 C 428.069 637.232 430.133 634.558 431.682 634.858 C 432.81 635.063 433.695 635.661 434.312 636.632 C 435.725 638.859 435.633 642.871 434.032 648.904 C 433.001 652.783 431.023 658.672 429.109 664.367 C 426.643 671.71 423.263 681.767 423.658 683.096 C 423.8 683.294 423.989 683.626 424.196 683.99 C 424.9 685.235 425.866 686.941 427.144 686.941 C 427.834 686.941 428.644 686.479 429.553 685.569 C 430.63 684.493 431.596 683.969 432.503 683.969 C 433.21 683.969 433.839 684.295 434.32 684.911 C 435.459 686.367 435.569 689.251 435.212 690.687 C 433.998 695.55 433.744 699.213 434.553 700.247 C 434.678 700.406 434.811 700.471 435.015 700.471 C 435.262 700.471 435.711 700.372 436.458 699.901 C 438.797 698.422 440.799 696.656 442.563 695.096 C 445.029 692.918 447.16 691.038 449.394 690.666 C 450.881 690.418 451.708 688.916 452.668 687.177 C 453.603 685.484 454.661 683.563 456.595 682.758 C 457.722 682.289 458.5 682.125 459.126 681.995 C 460.453 681.718 461.257 681.551 464.601 678.204 C 467.946 674.861 469.426 669.262 470.859 663.846 C 471.494 661.438 472.153 658.947 472.97 656.678 C 474.476 652.49 475.533 637.239 476.465 623.782 C 477.144 613.955 477.787 604.673 478.534 600.64 C 479.667 594.526 481.727 589.484 485.139 581.131 C 487.081 576.379 489.496 570.467 492.41 562.694 C 500.495 541.133 510.136 493.107 512.689 471.252 L 513.096 467.764 C 518.392 422.294 520.939 408.397 523.997 408.283 C 528.476 408.281 534.492 422.596 535.366 440.372 C 536.29 459.165 533.778 491.603 527.977 513.36 L 527.341 515.74 C 521.569 537.374 515.598 559.746 514.75 579.372 C 514.586 583.128 514.108 588.206 513.557 594.086 C 510.977 621.495 506.662 667.37 519.142 714.178 C 534.146 770.449 535.911 786.383 536.839 814.499 C 537.588 837.251 535.117 850.104 532.26 864.986 C 531.73 867.738 531.185 870.574 530.642 873.572 C 527.105 893.03 531.065 942.417 536.518 962.506 C 542.206 983.467 551.561 1035.085 552.446 1048.079 C 552.536 1049.399 552.626 1050.64 552.711 1051.811 C 553.46 1062.155 553.837 1067.347 550.314 1074.665 C 548.578 1078.273 543.328 1084.113 537.769 1090.294 C 531.331 1097.458 524.031 1105.578 523.88 1108.797 C 523.586 1114.991 524.191 1116.592 526.136 1119.933 C 526.935 1121.3 527.511 1122.528 528.021 1123.612 C 528.8 1125.272 529.418 1126.583 530.388 1127.393 C 531.026 1127.924 531.921 1128.09 532.872 1128.266 C 534.201 1128.513 535.708 1128.793 536.7 1130.18 L 536.989 1130.588 C 537.654 1131.535 537.654 1131.535 539.139 1132.182 C 539.793 1132.467 540.702 1132.864 542.01 1133.479 C 542.764 1133.833 543.572 1134.006 544.481 1134.006 C 546.038 1134.006 547.586 1133.496 548.951 1133.048 C 550.059 1132.684 551.018 1132.369 551.833 1132.369 C 552.899 1132.369 553.611 1132.916 553.894 1133.953 C 554.376 1135.716 557.679 1138.973 561.122 1138.973 C 562.876 1138.973 564.359 1138.1 565.533 1136.38 L 566.074 1135.587 C 570.461 1129.16 577.09 1119.447 580.167 1110.134 C 581.385 1106.449 581.896 1104.311 582.236 1102.895 C 582.818 1100.459 582.996 1099.723 585.28 1096.644 C 587.396 1093.788 585.373 1085.481 583.747 1078.807 C 582.85 1075.117 582 1071.632 581.896 1069.346 C 581.815 1067.569 582.84 1065.406 584.139 1062.667 C 586.307 1058.1 589.273 1051.846 589.48 1042.927 C 589.546 1040.066 588.216 1036.979 586.675 1033.406 C 584.525 1028.413 582.084 1022.754 582.782 1015.945 C 583.506 1008.899 584.415 1000.775 585.378 992.174 C 589.112 958.855 593.76 917.386 591.62 901.229 C 589.001 881.444 588.882 859.282 591.337 848.532 C 593.751 837.971 598.409 780.561 598.976 748.82 C 599.501 719.348 605.165 663.328 611.849 661.066 L 612.089 660.986 L 612.326 661.066 C 619.008 663.328 624.671 719.348 625.199 748.82 C 625.764 780.55 630.42 837.963 632.836 848.532 C 635.291 859.28 635.173 881.442 632.554 901.23 C 630.445 917.157 635.11 959.003 638.855 992.628 C 639.796 1001.065 640.683 1009.035 641.393 1015.944 C 642.16 1023.423 640.56 1029.78 639.152 1035.388 C 638.215 1039.111 637.408 1042.327 637.456 1045.216 C 637.532 1049.876 639.297 1053.79 640.715 1056.933 C 641.875 1059.509 642.878 1061.734 642.716 1063.726 L 642.557 1065.628 C 642.432 1067.074 642.328 1068.289 642.281 1069.345 C 642.176 1071.63 641.329 1075.114 640.428 1078.801 C 638.803 1085.478 636.78 1093.786 638.895 1096.643 C 641.181 1099.722 641.356 1100.458 641.942 1102.895 C 642.281 1104.31 642.794 1106.45 644.011 1110.132 C 647.085 1119.446 653.715 1129.159 658.102 1135.584 L 658.645 1136.379 C 659.816 1138.1 661.299 1138.972 663.053 1138.972 C 666.496 1138.972 669.801 1135.715 670.281 1133.951 C 670.563 1132.916 671.277 1132.369 672.342 1132.369 C 673.159 1132.369 674.116 1132.683 675.224 1133.048 C 676.591 1133.496 678.139 1134.006 679.694 1134.006 C 680.603 1134.006 681.414 1133.832 682.165 1133.479 C 683.475 1132.864 684.384 1132.467 685.038 1132.181 C 686.521 1131.535 686.521 1131.535 687.187 1130.588 L 687.475 1130.18 C 688.467 1128.793 689.974 1128.513 691.306 1128.266 C 692.254 1128.09 693.152 1127.924 693.786 1127.393 C 694.759 1126.582 695.375 1125.272 696.154 1123.613 C 696.664 1122.529 697.242 1121.3 698.04 1119.931 C 699.984 1116.592 700.589 1114.993 700.296 1108.797 C 700.145 1105.578 692.845 1097.459 686.406 1090.295 C 680.847 1084.113 675.598 1078.274 673.861 1074.665 C 670.338 1067.346 670.715 1062.152 671.465 1051.808 C 671.548 1050.635 671.638 1049.397 671.728 1048.079 C 672.616 1035.079 681.971 983.463 687.659 962.506 C 693.11 942.415 697.069 893.027 693.532 873.572 C 692.989 870.575 692.444 867.74 691.917 864.989 C 689.057 850.106 686.588 837.253 687.337 814.499 C 688.264 786.388 690.028 770.456 705.032 714.178 C 717.511 667.374 713.197 621.499 710.619 594.09 C 710.065 588.209 709.588 583.13 709.426 579.372 C 708.576 559.749 702.609 537.381 696.835 515.75 L 696.198 513.36 C 690.398 491.608 687.886 459.168 688.808 440.372 C 689.682 422.595 695.698 408.281 700.098 408.281 C 703.237 408.397 705.784 422.294 711.078 467.762 L 711.486 471.252 C 714.039 493.107 723.681 541.133 731.765 562.694 C 734.68 570.468 737.095 576.382 739.036 581.134 C 742.448 589.484 744.51 594.525 745.641 600.639 C 746.388 604.671 747.032 613.952 747.71 623.779 C 748.644 637.238 749.698 652.49 751.205 656.677 C 752.022 658.947 752.682 661.438 753.319 663.847 C 754.751 669.261 756.229 674.861 759.574 678.203 C 762.92 681.55 763.721 681.717 765.051 681.994 C 765.675 682.124 766.455 682.288 767.581 682.757 C 769.515 683.562 770.572 685.483 771.507 687.176 C 772.467 688.915 773.294 690.417 774.784 690.665 C 777.017 691.037 779.146 692.917 781.614 695.095 C 783.379 696.655 785.382 698.422 787.719 699.9 C 788.466 700.372 788.915 700.47 789.16 700.47 C 789.364 700.47 789.498 700.406 789.622 700.246 C 790.428 699.216 790.176 695.552 788.965 690.686 C 788.606 689.249 788.716 686.366 789.855 684.91 C 790.334 684.294 790.963 683.968 791.67 683.968 C 792.579 683.968 793.545 684.491 794.62 685.566 C 795.531 686.478 796.342 686.94 797.031 686.94 C 798.31 686.94 799.275 685.234 799.98 683.989 C 800.187 683.626 800.376 683.294 800.552 683.03 C 800.913 681.767 797.534 671.71 795.066 664.367 C 793.155 658.672 791.175 652.783 790.146 648.904 C 788.542 642.871 788.451 638.856 789.863 636.632 C 790.48 635.66 791.365 635.063 792.493 634.858 C 794.047 634.564 796.107 637.229 799.664 642.171 C 802.031 645.461 804.714 649.192 806.566 650.361 C 807.355 650.858 808.212 651.121 809.041 651.121 C 810.357 651.121 811.533 650.475 812.042 649.476 C 812.432 648.706 812.333 647.854 811.762 647.076 C 809.668 644.217 798.517 627.95 794.61 619.661 C 791.993 614.11 785.063 609.083 780.003 605.412 C 777.804 603.816 775.905 602.439 774.735 601.305 C 770.644 597.334 769.503 586.401 768.917 545.586 C 768.35 506.073 756.556 459.466 750.397 440.342 C 745.057 423.757 745.581 401.077 745.894 387.527 L 745.944 385.307 C 746.028 381.528 746.042 378.432 746.056 374.846 C 746.093 365.66 746.144 354.229 747.416 323.43 C 749.069 283.492 724.405 268.635 711.155 260.653 C 710.362 260.174 709.604 259.719 708.892 259.282 C 696.124 251.445 640.92 227.171 640.364 226.927 L 639.904 226.726 L 639.924 226.225 C 639.929 226.064 640.5 210.058 639.933 206.635 C 639.372 203.251 643.243 194.827 646.352 188.058 L 647.349 185.884 C 650.145 179.731 648.791 174.052 648.777 173.995 L 648.566 173.14 L 653.86 172.786 C 653.987 172.777 654.35 172.68 654.96 171.958 C 659.239 166.902 664.596 145.545 664.368 143.254 C 664.335 142.917 664.263 142.215 662.78 142.215 C 661.981 142.215 661.127 142.427 660.645 142.57 C 660.18 145.009 659.935 145.349 659.304 145.349 C 659.301 145.349 659.301 145.349 659.301 145.349 L 658.976 145.349 L 658.733 145.095 C 658.435 144.769 658.201 144.512 659.065 135.157 C 660.538 119.276 653.319 98.371 648.864 91.13 C 644.491 84.022 618.001 75.584 616.101 74.987 L 608.075 74.987 C 606.177 75.584 579.685 84.021 575.314 91.13 C 570.86 98.371 563.641 119.276 565.111 135.157 C 565.975 144.512 565.753 144.757 565.444 145.095 L 565.224 145.336 L 564.873 145.349 C 564.242 145.349 563.995 145.009 563.531 142.57 C 563.049 142.426 562.197 142.215 561.397 142.215 C 559.913 142.215 559.842 142.917 559.81 143.254 C 559.58 145.544 564.934 166.9 569.213 171.958 C 569.824 172.68 570.186 172.777 570.313 172.786 L 575.611 173.14 L 575.4 173.996 C 575.385 174.053 574.032 179.731 576.826 185.885 L 577.818 188.05 C 580.928 194.822 584.802 203.251 584.242 206.636 C 583.677 210.059 584.246 226.065 584.253 226.226 L 584.271 226.727 L 583.811 226.928 C 583.254 227.172 528.05 251.447 515.283 259.283 C 514.571 259.721 513.815 260.176 513.022 260.654 C 499.772 268.636 475.108 283.494 476.759 323.431 C 478.034 354.24 478.082 365.668 478.121 374.854 C 478.137 378.437 478.149 381.533 478.23 385.308 L 478.281 387.517 C 478.594 401.07 479.12 423.754 473.778 440.343 C 467.623 459.466 455.826 506.074 455.259 545.587 C 454.674 586.401 453.53 597.335 449.44 601.306"></path>
          </g>
        </g>
      </g>
      <rect x="331.979" y="50" width="536.041" height="1100" fill="none"></rect>
    </g>
  </g>
  <g id="group-1" transform="matrix(1, 0, 0, 1, -694.266, -968.091)" style="transform-origin: 819.997px 1225.23px;"></g>
  <path style="stroke: rgb(0, 0, 0); fill: rgb(152, 73, 73);" d="M 97.604 568.702 C 107.02 572.126 112.608 569.638 122.391 569.638 C 123.361 569.638 130.542 568.754 131.159 569.988 C 131.746 571.161 129.765 574.402 129.406 575.601 C 127.78 581.019 126.662 586.978 125.547 592.554 C 121.839 611.098 123.926 639.01 111.517 654.52 C 109.298 657.295 105.838 656.997 103.216 658.963 C 100.374 661.095 98.252 666.604 95.85 669.486 C 93.771 671.981 90.847 671.67 88.25 673.227 C 86.628 674.201 83.908 676.961 81.82 675.917 C 78.308 674.16 82.756 662.943 82.171 660.016 C 81.445 656.385 71.252 662.668 72.583 653.351 C 74.155 642.351 79.707 632.221 82.404 621.433 C 82.764 619.993 85.574 611.273 84.158 609.858 C 83.205 608.905 79.339 612.835 78.897 613.365 C 77.16 615.45 66.169 627.521 62.879 625.875 C 57.484 623.178 65.915 613.089 67.439 611.261 C 78.727 597.715 89.924 584.059 97.721 568.469"></path>
  <path style="stroke: rgb(0, 0, 0); fill: rgb(156, 31, 31);" d="M 419.439 562.06 C 420.555 563.845 420.925 566.116 421.347 568.436 C 421.769 570.756 422.242 573.125 423.565 575.109 C 425.619 578.191 428.756 580.596 432.006 582.935 C 435.255 585.274 438.618 587.547 441.124 590.366 C 443.728 593.296 445.752 596.527 447.684 599.81 C 449.617 603.092 451.458 606.425 453.695 609.557 C 455.04 611.441 456.632 613.388 458.076 615.425 C 459.519 617.463 460.814 619.592 461.563 621.84 C 461.762 622.436 461.832 623.597 461.637 624.653 C 461.443 625.708 460.984 626.657 460.124 626.829 C 457.23 627.408 454.357 625.498 451.916 622.935 C 449.476 620.373 447.468 617.157 446.306 615.123 C 445.999 614.586 445.166 613.16 444.214 611.934 C 443.263 610.708 442.193 609.681 441.412 609.941 C 439.558 610.56 439.244 613.096 439.467 615.769 C 439.691 618.442 440.45 621.251 440.741 622.415 C 441.712 626.298 442.812 630.174 443.959 634.044 C 445.106 637.914 446.3 641.779 447.457 645.637 C 448.07 647.68 449.012 650.002 449.689 652.367 C 450.366 654.732 450.78 657.141 450.336 659.358 C 449.542 663.328 446.854 662.741 444.186 661.432 C 441.517 660.122 438.867 658.09 438.15 659.166 C 437.714 659.82 438.681 663.388 439.345 666.723 C 440.009 670.059 440.371 673.162 438.726 672.888 C 435.827 672.405 434.097 670.796 432.541 669.033 C 430.985 667.27 429.604 665.353 427.403 664.252 C 426.674 663.887 425.954 664.25 425.212 664.559 C 424.471 664.868 423.708 665.122 422.893 664.54 C 421.912 663.84 421.32 662.814 420.729 661.78 C 420.139 660.746 419.549 659.705 418.575 658.974 C 416.307 657.273 414.049 655.938 411.94 654.4 C 409.831 652.863 407.871 651.123 406.197 648.611 C 404.675 646.329 403.848 643.576 403.335 640.731 C 402.822 637.887 402.623 634.95 402.358 632.299 C 401.758 626.3 400.499 620.378 399.287 614.43 C 398.075 608.483 396.912 602.51 396.505 596.411 C 396.269 592.87 395.949 589.337 395.62 585.806 C 395.292 582.274 394.954 578.744 394.682 575.205 C 394.608 574.252 394.168 572.613 393.858 570.989 C 393.549 569.364 393.369 567.754 393.818 566.857 C 394.096 566.301 395.386 565.947 396.753 565.704 C 398.12 565.462 399.564 565.333 400.152 565.226 C 402.251 564.845 406.634 564.804 410.88 564.471 C 415.125 564.138 419.233 563.513 420.782 561.964"></path>
  <path style="stroke: rgb(0, 0, 0); fill: rgb(86, 175, 68);" d="M 130.498 568.183 C 100.657 570.999 97.489 570.272 97.921 568.242 C 99.725 559.774 102.848 543.727 102.742 534.119 C 102.478 510.248 104.818 486.21 109.681 462.838 C 112.592 448.848 117.406 435.314 120.673 421.403 C 123.927 407.547 127.019 393.056 127.378 378.828 C 128.513 333.899 112.553 266.476 140.374 247.141 C 150.854 239.858 215.916 201.7 227.285 202.351 C 255.041 203.939 262.958 205.304 289.446 202.49 C 301.48 201.212 325.858 218.392 352.443 229.575 C 359.115 232.381 366.907 237.357 372.413 242.054 C 405.163 269.99 396.677 304.157 394.806 334.262 C 390.868 397.62 408.812 428.797 416.025 488.358 C 419.824 519.727 425.347 542.492 419.924 562.294 C 419.634 563.353 393.994 566.81 391.766 565.144 C 387.1 561.656 382.389 544.805 380.929 539.166 C 378.791 530.911 376.014 522.816 374.231 514.477 C 372.434 506.075 369.326 497.397 367.43 489.016 C 364.022 473.951 356.884 448.318 356.012 432.559 C 354.846 411.483 358.374 411.47 350.614 390.677 C 349.891 388.739 348.828 387.655 347.28 389.025 C 343.828 392.081 345.284 391.153 344.507 393.479 C 340.03 406.888 341.261 417.451 341.188 431.612 C 341.019 464.211 343.715 473.345 350.462 505.148 C 350.89 507.166 359.171 533.354 355.477 536.621 C 196.78 540.587 162.207 541.577 162.984 537.904 C 164.521 530.638 173.772 498.635 174.97 493.747 C 187.966 440.709 185.007 453.423 182.366 404.929 C 182.225 402.334 182.014 389.279 177.13 390.143 C 171.597 391.122 173.658 401.016 172.762 406.065 C 169.817 422.66 165.097 440.65 161.723 457.16 C 152.42 502.683 156.413 510.093 136.806 552.413 C 132.841 560.971 132.884 558.74 130.271 568.151"></path>
  <path style="stroke: rgb(0, 0, 0); fill: rgb(193, 198, 217);" d="M 265.968 649.219 C 263.948 649.8 263.877 632.622 260.207 635.868 C 255.938 639.644 257.405 649.793 255.506 649.959 C 168.923 642.857 160.176 648.474 159.917 647.696 C 158.319 642.904 157.837 619.898 157.836 614.927 C 157.833 601.292 157.983 594.622 159.694 584.112 C 161.513 572.94 159.058 549.093 164.197 540.08 C 346.474 538.249 356.833 536.108 357.116 536.485 C 357.116 536.485 359.42 553.494 359.652 555.117 C 361.688 569.364 363.254 583.717 364.149 598.045 C 365.398 634.675 362.772 646.137 362.645 647.736 C 290.918 648.608 265.375 651.071 265.982 649.223"></path>
  <path style="stroke: rgb(0, 0, 0); fill: rgb(231, 190, 190);" d="M 160.457 648.797 C 160.457 668.739 164.758 691.715 169.886 714.672 C 175.015 737.63 180.971 760.57 184.283 780.442 C 186.192 791.895 184.882 804.429 183.106 816.77 C 181.331 829.111 180.308 841.323 179.134 851.935 C 176.576 875.065 177.391 893.647 179.733 912.201 C 182.075 930.755 185.416 950.046 192.442 972.305 C 198.292 997.665 203.427 1021.12 201.281 1035.573 C 233.136 1043.857 232.815 1040.757 233.565 1038.555 C 238.296 1024.661 245.318 992.632 246.022 961.348 C 246.726 930.064 244.615 896.821 240.917 872.247 C 238.3 854.85 240.372 835.586 242.887 815.969 C 245.403 796.353 248.363 776.384 247.521 757.579 C 247.064 747.375 247.528 740.425 248.259 733.491 C 248.989 726.557 249.987 719.64 250.598 709.503 C 250.719 707.498 252.747 694.552 254.347 680.974 C 255.946 667.396 257.118 653.185 255.527 648.648 C 229.842 648.423 211.01 647.566 196.138 647.18 C 181.266 646.795 170.354 646.882 160.511 648.543"></path>
  <path style="stroke: rgb(0, 0, 0); fill: rgb(40, 152, 50);" d="M 201.016 1036.056 C 199.455 1048.544 192.283 1053.828 185.264 1064.004 C 181.389 1069.621 176.091 1076.658 171.548 1080.976 C 167.855 1084.486 172.544 1088.806 174.012 1092.159 C 174.934 1094.265 176.596 1096.803 177.074 1098.936 C 177.886 1102.563 182.58 1101.223 185.387 1103.395 C 186.596 1104.331 188.737 1107.429 190.198 1107.916 C 193.28 1108.943 197.594 1108.979 199.671 1106.831 C 200.743 1105.722 207.142 1116.076 212.262 1112.369 C 217.138 1108.838 222.291 1098.539 226.772 1091.724 C 231.46 1078.396 234.365 1073.399 234.703 1072.391 C 237.499 1064.063 234.503 1058.51 233.192 1050.63 C 233.016 1049.572 232.606 1041.108 231.791 1040.682 C 217.473 1040.3 208.936 1038.374 200.63 1036.262"></path>
  <path style="stroke: rgb(0, 0, 0); fill: rgb(40, 152, 50); transform-box: fill-box; transform-origin: 50% 50%;" d="M 319.156 1114.72 C 317.354 1102.23 309.08 1096.96 300.983 1086.77 C 296.513 1081.16 290.401 1074.13 285.161 1069.82 C 280.9 1066.3 286.31 1061.98 288.003 1058.64 C 289.067 1056.53 290.984 1053.99 291.535 1051.86 C 292.472 1048.23 297.887 1049.57 301.125 1047.4 C 302.519 1046.46 304.989 1043.37 306.675 1042.88 C 310.231 1041.85 315.207 1041.82 317.604 1043.95 C 318.841 1045.07 326.223 1034.73 332.129 1038.43 C 337.753 1041.96 343.698 1052.26 348.868 1059.07 C 354.276 1072.39 357.627 1077.4 358.017 1078.4 C 361.242 1086.72 357.786 1092.28 356.274 1100.16 C 356.071 1101.21 355.598 1109.67 354.659 1110.09 C 338.141 1110.48 328.292 1112.41 318.709 1114.52" transform="matrix(-1, 0, 0, -1, 0.000035, 0.000101)"></path>
  <path style="stroke: rgb(0, 0, 0); fill: rgb(231, 190, 190); transform-box: fill-box; transform-origin: 50% 50%;" d="M 269.35 1040.72 C 269.35 1020.78 273.409 997.808 278.249 974.851 C 283.089 951.894 288.71 928.954 291.834 909.083 C 293.636 897.63 292.401 885.096 290.724 872.756 C 289.049 860.415 288.083 848.203 286.976 837.591 C 284.561 814.462 285.33 795.881 287.54 777.327 C 289.751 758.774 292.904 739.484 299.534 717.225 C 305.055 691.87 309.901 668.41 307.876 653.961 C 337.937 645.671 337.634 648.771 338.342 650.981 C 342.806 664.871 349.433 696.9 350.096 728.182 C 350.762 759.465 348.77 792.707 345.28 817.28 C 342.81 834.677 344.765 853.941 347.139 873.557 C 349.513 893.172 352.307 913.141 351.511 931.946 C 351.081 942.149 351.519 949.1 352.209 956.029 C 352.898 962.967 353.838 969.886 354.416 980.015 C 354.529 982.025 356.444 994.976 357.954 1008.55 C 359.462 1022.13 360.569 1036.35 359.068 1040.88 C 334.828 1041.1 317.057 1041.95 303.022 1042.35 C 288.987 1042.73 278.69 1042.63 269.401 1040.98" transform="matrix(-1, 0, 0, -1, 0.000013, 0.000044)"></path>
  <path style="stroke: rgb(94, 181, 170); fill: rgb(76, 205, 210);" d="M 294.127 202.05 C 244.451 206.18 228.261 204.048 226.852 202.388 C 225.208 200.451 231.562 198.244 231.652 195.373 C 231.953 185.82 232.589 176.695 229.139 168.993 C 223.238 159.373 223.265 149.002 222.866 147.48 C 222.441 145.858 218.597 148.84 217.038 146.155 C 214.028 140.972 207.589 124.026 208.039 115.728 C 208.179 113.153 213.056 114.922 213.908 115.918 C 212.888 96.286 213.697 88.351 216.179 81.8 C 224.392 60.12 240.41 49.914 259.916 47.455 C 285.002 44.293 307.817 61.989 309.054 84.872 C 309.554 94.127 309.973 106.7 307.667 114.818 C 307.136 116.688 313.328 113.316 313.944 115.186 C 315.959 121.304 309.683 139.423 307.024 145.282 C 304.478 150.891 298.646 145.528 299.225 147.364 C 300.095 150.12 294.919 166.459 293.403 169.216 C 292.574 170.723 288.204 182.011 290.185 194.85 C 288.484 197.792 296.968 202.019 294.564 202.019"></path>
  <ellipse style="fill: rgb(243, 199, 199); stroke: rgb(251, 251, 251);" cx="262.716" cy="151.768" rx="18.904" ry="5.869"></ellipse>
</svg>